<svg width="848" height="271" xmlns="http://www.w3.org/2000/svg" xmlns:xlink="http://www.w3.org/1999/xlink" xml:space="preserve" overflow="hidden"><g transform="translate(-705 -265)"><g><text fill="#000000" fill-opacity="1" font-family="Futura,Futura_MSFontService,sans-serif" font-style="normal" font-variant="normal" font-weight="700" font-stretch="normal" font-size="128" text-anchor="start" direction="ltr" writing-mode="lr-tb" unicode-bidi="normal" text-decoration="none" transform="matrix(1 0 0 1 787.828 428)">COMPANY</text><path d="M1135 453.167C1135 446.447 1140.45 441 1147.17 441L1503.83 441C1510.55 441 1516 446.447 1516 453.167L1516 501.833C1516 508.553 1510.55 514 1503.83 514L1147.17 514C1140.45 514 1135 508.553 1135 501.833Z" fill="#000000" fill-rule="evenodd" fill-opacity="1"/><text fill="#FFFFFF" fill-opacity="1" font-family="Futura,Futura_MSFontService,sans-serif" font-style="normal" font-variant="normal" font-weight="700" font-stretch="normal" font-size="46" text-anchor="start" direction="ltr" writing-mode="lr-tb" unicode-bidi="normal" text-decoration="none" transform="matrix(1 0 0 1 1174.75 494)">CO</text><text fill="#FFFFFF" fill-opacity="1" font-family="Futura,Futura_MSFontService,sans-serif" font-style="normal" font-variant="normal" font-weight="700" font-stretch="normal" font-size="31" text-anchor="start" direction="ltr" writing-mode="lr-tb" unicode-bidi="normal" text-decoration="none" transform="matrix(1 0 0 1 1249.8 480)">2</text><text fill="#FFFFFF" fill-opacity="1" font-family="Futura,Futura_MSFontService,sans-serif" font-style="normal" font-variant="normal" font-weight="700" font-stretch="normal" font-size="46" text-anchor="start" direction="ltr" writing-mode="lr-tb" unicode-bidi="normal" text-decoration="none" transform="matrix(1 0 0 1 1283.6 494)">Footprint</text></g></g></svg>